<svg width="45" height="45" viewBox="0 0 45 45" fill="none" xmlns="http://www.w3.org/2000/svg">
<g clip-path="url(#clip0_6_24)" filter="url(#filter0_d_6_24)">
<path d="M31.1045 10.2567C30.9702 10.1223 30.7837 10.045 30.5937 10.045C30.4036 10.045 30.2172 10.1223 30.0828 10.2567C29.9484 10.3911 29.871 10.5769 29.871 10.7676C29.871 10.9577 29.9483 11.1441 30.0828 11.2786C30.2173 11.413 30.4036 11.4903 30.5937 11.4903C30.7837 11.4903 30.9702 11.413 31.1045 11.2786C31.2389 11.1441 31.3163 10.9577 31.3163 10.7676C31.3163 10.5776 31.239 10.3911 31.1045 10.2567Z" fill="#95E1D3"/>
<path d="M14.8398 20.3789H9.05859C8.65954 20.3789 8.33594 20.7025 8.33594 21.1016V26.8828C8.33594 27.282 8.65954 27.6055 9.05859 27.6055H14.8398C15.2389 27.6055 15.5625 27.282 15.5625 26.8828V21.1016C15.5625 20.7025 15.239 20.3789 14.8398 20.3789ZM14.1172 26.1602H9.78125V21.8242H14.1172V26.1602Z" fill="#95E1D3"/>
<path d="M40.5538 15.1586C40.2838 15.0466 39.9729 15.1086 39.7663 15.3152L32.4026 22.6789C32.4025 22.679 32.4023 22.6791 32.4022 22.6792C32.4021 22.6794 32.402 22.6794 32.4019 22.6796L23.8179 31.2636C23.8178 31.2637 23.8177 31.2638 23.8176 31.2639C23.8174 31.2641 23.8174 31.2641 23.8172 31.2643L19.3151 35.7664C19.1085 35.973 19.0467 36.2839 19.1585 36.5539C19.2703 36.824 19.5338 37 19.8261 37H40.2773C40.6763 37 40.9999 36.6765 40.9999 36.2773V15.8262C40.9999 15.534 40.8239 15.2704 40.5538 15.1586ZM39.5546 35.5547H21.5708L24.3286 32.797L25.0184 33.4868C25.1595 33.6279 25.3445 33.6985 25.5294 33.6985C25.7143 33.6985 25.8992 33.6279 26.0404 33.4868C26.3226 33.2046 26.3226 32.747 26.0404 32.4648L25.3505 31.7749L27.1901 29.9353L27.8799 30.6251C28.021 30.7662 28.206 30.8368 28.3909 30.8368C28.5758 30.8368 28.7607 30.7662 28.9019 30.6251C29.1841 30.3429 29.1841 29.8853 28.9019 29.6031L28.212 28.9133L30.0516 27.0737L30.7415 27.7635C30.8826 27.9047 31.0675 27.9752 31.2525 27.9752C31.4374 27.9752 31.6223 27.9047 31.7634 27.7635C32.0456 27.4813 32.0456 27.0237 31.7634 26.7415L31.0736 26.0516L32.9131 24.2121L33.603 24.902C33.7441 25.0431 33.929 25.1136 34.114 25.1136C34.2989 25.1136 34.4838 25.0431 34.6249 24.902C34.9071 24.6198 34.9071 24.1622 34.6249 23.8799L33.9351 23.1901L35.7747 21.3505L36.4645 22.0402C36.6056 22.1814 36.7905 22.2519 36.9755 22.2519C37.1604 22.2519 37.3453 22.1813 37.4864 22.0402C37.7686 21.7581 37.7686 21.3005 37.4864 21.0183L36.7966 20.3284L39.5546 17.5708V35.5547Z" fill="#95E1D3"/>
<path d="M36.9405 23.8818C36.6705 23.7698 36.3596 23.8318 36.153 24.0384L28.0384 32.1531C27.8318 32.3598 27.7698 32.6706 27.8817 32.9406C27.9936 33.2107 28.2571 33.3867 28.5494 33.3867H36.664C37.063 33.3867 37.3866 33.0632 37.3866 32.6641V24.5494C37.3866 24.2572 37.2106 23.9937 36.9405 23.8818ZM35.9413 31.9414H30.2941L35.9413 26.2941V31.9414Z" fill="#95E1D3"/>
<path d="M37.4634 10.7866C37.2645 10.5878 36.9683 10.5223 36.7039 10.6191L31.7695 12.4261C31.6709 12.4622 31.5813 12.5194 31.507 12.5936L30.1196 13.9811L21.0599 4.92136C20.9244 4.78586 20.7406 4.7097 20.5489 4.7097C20.3573 4.7097 20.1734 4.78586 20.0379 4.92136L9.13287 15.8264H6.4675L20.5489 1.74493L28.2762 9.47221C28.5585 9.75441 29.0159 9.75441 29.2983 9.47221C29.5805 9.19001 29.5805 8.73243 29.2983 8.45016L21.06 0.211892C20.7777 -0.0703051 20.3203 -0.0703051 20.0379 0.211892L4.21181 16.038C4.0052 16.2447 3.94334 16.5555 4.05514 16.8256C4.167 17.0957 4.43048 17.2718 4.7228 17.2718H5.44545V36.2776C5.44545 36.6767 5.76906 37.0002 6.16811 37.0002H17.6573C18.0564 37.0002 18.38 36.6767 18.38 36.2776C18.38 35.8785 18.0564 35.5549 17.6573 35.5549H6.89076V17.2718H9.43219C9.62384 17.2718 9.80761 17.1956 9.94318 17.0601L20.5489 6.45433L29.0975 15.003L18.381 25.7196V19.2229H23.4396C23.8386 19.2229 24.1622 18.8994 24.1622 18.5003C24.1622 18.1011 23.8386 17.7776 23.4396 17.7776H17.6583C17.2593 17.7776 16.9357 18.1011 16.9357 18.5003V26.8831C16.9357 26.9674 16.9508 27.0479 16.9774 27.1231L16.3299 27.7706C15.186 28.9145 15.186 30.7759 16.3299 31.9199C16.902 32.492 17.6532 32.778 18.4046 32.7779C19.1559 32.7779 19.9074 32.4919 20.4793 31.92L26.5736 25.8257C26.8558 25.5435 26.8558 25.0859 26.5736 24.8037C26.2914 24.5215 25.8339 24.5215 25.5515 24.8037L20.9343 29.4209L18.829 27.3156L32.0324 14.1122L34.1377 16.2175L29.0925 21.2628C28.8103 21.545 28.8103 22.0025 29.0925 22.2847C29.3748 22.5669 29.8322 22.5669 30.1146 22.2847L35.6563 16.743C35.7305 16.6687 35.7878 16.5791 35.8238 16.4805L37.6309 11.5462C37.7277 11.282 37.6623 10.9856 37.4634 10.7866ZM19.9124 30.4428L19.4573 30.8979C19.1761 31.1791 18.8024 31.334 18.4047 31.334C18.007 31.334 17.6332 31.1791 17.3521 30.8979C17.0708 30.6167 16.916 30.2429 16.916 29.8453C16.916 29.4477 17.0707 29.0738 17.352 28.7926L17.8071 28.3375L19.9124 30.4428ZM34.8637 14.8993L33.3506 13.3862L35.7381 12.5118L34.8637 14.8993Z" fill="#95E1D3"/>
<path d="M28.331 23.0455C28.1967 22.9111 28.0102 22.8338 27.8202 22.8338C27.6301 22.8338 27.4437 22.9111 27.3092 23.0455C27.1748 23.1807 27.0975 23.3664 27.0975 23.5565C27.0975 23.7472 27.1748 23.933 27.3092 24.0681C27.4437 24.2025 27.6294 24.2791 27.8202 24.2791C28.0102 24.2791 28.1967 24.2025 28.331 24.0681C28.4654 23.933 28.5428 23.7465 28.5428 23.5565C28.5428 23.3664 28.4655 23.1807 28.331 23.0455Z" fill="#95E1D3"/>
<path d="M20.5488 10.9122C19.0346 10.9122 17.8027 12.1441 17.8027 13.6582C17.8027 15.1724 19.0346 16.4043 20.5488 16.4043C22.063 16.4043 23.2949 15.1724 23.2949 13.6582C23.2949 12.1441 22.063 10.9122 20.5488 10.9122ZM20.5488 14.959C19.8316 14.959 19.248 14.3756 19.248 13.6582C19.248 12.941 19.8316 12.3575 20.5488 12.3575C21.266 12.3575 21.8496 12.941 21.8496 13.6582C21.8496 14.3755 21.266 14.959 20.5488 14.959Z" fill="#95E1D3"/>
</g>
<defs>
<filter id="filter0_d_6_24" x="0" y="0" width="45" height="45" filterUnits="userSpaceOnUse" color-interpolation-filters="sRGB">
<feFlood flood-opacity="0" result="BackgroundImageFix"/>
<feColorMatrix in="SourceAlpha" type="matrix" values="0 0 0 0 0 0 0 0 0 0 0 0 0 0 0 0 0 0 127 0" result="hardAlpha"/>
<feOffset dy="4"/>
<feGaussianBlur stdDeviation="2"/>
<feComposite in2="hardAlpha" operator="out"/>
<feColorMatrix type="matrix" values="0 0 0 0 0 0 0 0 0 0 0 0 0 0 0 0 0 0 0.25 0"/>
<feBlend mode="normal" in2="BackgroundImageFix" result="effect1_dropShadow_6_24"/>
<feBlend mode="normal" in="SourceGraphic" in2="effect1_dropShadow_6_24" result="shape"/>
</filter>
<clipPath id="clip0_6_24">
<rect width="37" height="37" fill="white" transform="translate(4)"/>
</clipPath>
</defs>
</svg>
